<svg width="608" height="591" xmlns="http://www.w3.org/2000/svg" stroke="null">
 <g id="Layer_1">
  <title>Layer 1</title>
  <g opacity="0.57" id="svg_49">
   <ellipse fill="#9ACEE6" stroke-width="0" cx="98" cy="53.5" id="svg_37" rx="67" ry="20" stroke="#000"/>
   <ellipse fill="#9ACEE6" stroke="#000" stroke-width="0" cx="240" cy="162.5" id="svg_47" rx="67" ry="38"/>
   <ellipse fill="#9ACEE6" stroke="#000" stroke-width="0" cx="170" cy="149" id="svg_48" rx="30" ry="20.5"/>
   <ellipse fill="#9ACEE6" stroke="#000" stroke-width="0" cx="488.5" cy="83.5" id="svg_39" rx="78.5" ry="23"/>
   <g id="svg_44">
    <rect id="svg_42" height="290" width="273" y="112.5" x="213" stroke-width="0" stroke="#000" fill="#AF84A3"/>
    <rect id="svg_43" height="150" width="161" y="300.5" x="90" stroke-width="0" fill="#AF84A3" stroke="#000"/>
    <g id="svg_41">
     <rect id="svg_38" height="244" width="65" y="314.5" x="31" stroke-width="0" stroke="#000" fill="#AF84A3"/>
     <g id="svg_36">
      <g stroke="null" id="svg_15">
       <rect stroke="#000" stroke-width="0" id="svg_2" height="280.57492" width="117.85844" y="176.43883" x="-4.99999" fill="#8391AE"/>
       <rect stroke-width="0" id="svg_4" height="176.70909" width="148.59166" y="276.42539" x="164.91834" fill="#8391AE" stroke="#000"/>
       <rect stroke="#000" stroke-width="0" id="svg_5" height="243.21793" width="83.18513" y="213.001" x="370.26317" fill="#8391AE"/>
       <rect stroke="#000" stroke-width="0" id="svg_6" height="155.78664" width="135.28494" y="313.14955" x="409.87479" fill="#8391AE"/>
       <rect stroke="#000" stroke-width="0" id="svg_8" height="213.01438" width="107.56262" y="261.48563" x="509.4374" fill="#8391AE"/>
       <path stroke="#000" id="svg_9" d="m346.14008,183.61808l66.03259,-42.8072l66.03274,42.8072l-25.22215,69.2638l-81.62096,0l-25.22222,-69.2638z" stroke-width="0" fill="#8391AE"/>
       <rect id="svg_10" height="58.02258" width="121.84937" y="146.46631" x="-0.38657" stroke-width="0" fill="#8391AE" stroke="#000"/>
       <rect stroke="#000" id="svg_11" height="29.4087" width="92.03812" y="121.3904" x="9.11797" stroke-width="0" fill="#8391AE"/>
       <path stroke="#000" id="svg_12" d="m37.18803,138.12375l11.85118,-125.58311l11.85118,125.58311l-23.70236,0z" stroke-width="0" fill="#8391AE"/>
       <rect stroke="#000" id="svg_13" height="40.53632" width="68.75136" y="234.4614" x="529.39748" stroke-width="0" fill="#8391AE"/>
       <ellipse stroke="#000" ry="12.71728" rx="34.37568" id="svg_14" cy="234.4614" cx="563.77316" stroke-width="0" fill="#8391AE"/>
       <rect id="svg_30" height="180" width="528" y="421.5" x="101" stroke-width="0" stroke="#000" fill="#8391AE"/>
      </g>
      <rect stroke="#000" id="svg_16" height="299" width="33" y="254.5" x="34" stroke-width="0" fill="#645A73"/>
      <rect stroke="#000" id="svg_17" height="168.00001" width="148" y="447.5" x="128" stroke-width="0" fill="#645A73"/>
      <rect stroke="#000" id="svg_18" height="328.00001" width="64" y="258.49999" x="310" stroke-width="0" fill="#645A73"/>
      <rect stroke="#000" id="svg_19" height="193" width="116" y="388.5" x="458" stroke-width="0" fill="#645A73"/>
      <rect stroke="#000" id="svg_20" height="200" width="28" y="380.5" x="402" stroke-width="0" fill="#645A73"/>
      <rect stroke="#000" id="svg_21" height="228" width="55" y="358.5" x="186" stroke-width="0" fill="#645A73"/>
      <rect id="svg_22" height="130" width="142" y="470.5" x="74" stroke-width="0" stroke="#000" fill="#645A73"/>
      <rect id="svg_23" height="174" width="110" y="423.5" x="-4" stroke-width="0" stroke="#000" fill="#645A73"/>
      <rect id="svg_24" height="426" width="81" y="177.5" x="552" stroke-width="0" stroke="#000" fill="#645A73"/>
      <rect id="svg_25" height="46" width="234" y="547.5" x="348" stroke-width="0" stroke="#000" fill="#645A73"/>
      <path stroke="#000" id="svg_26" d="m17.935,232.5525l0,0c0,-18.2254 14.7746,-33 33,-33l0,0c8.75214,0 17.14582,3.47677 23.33452,9.66547c6.1887,6.1887 9.66548,14.58238 9.66548,23.33453l0,0c0,18.22539 -14.7746,33 -33,33l0,0c-18.22539,0 -33,-14.77461 -33,-33zm16.5,0l0,0c0,9.1127 7.38731,16.5 16.5,16.5c9.1127,0 16.5,-7.3873 16.5,-16.5c0,-9.1127 -7.3873,-16.5 -16.5,-16.5l0,0c-9.11269,0 -16.5,7.38731 -16.5,16.5z" stroke-width="0" fill="#645A73"/>
      <path id="svg_27" d="m427,348.5" opacity="NaN" stroke-width="0" stroke="#000" fill="#645A73"/>
      <rect id="svg_31" height="79" width="177" y="515.5" x="209" stroke-width="0" stroke="#000" fill="#645A73"/>
      <rect stroke="#000" id="svg_32" height="130" width="45" y="273.5" x="458" stroke-width="0" fill="#645A73"/>
      <path id="svg_33" d="m476.725,274.45063l3.5,-247l3.5,247l-7,0z" stroke-width="0" stroke="#000" fill="#645A73"/>
      <rect id="svg_34" height="28" width="24" y="256.5" x="469" stroke-width="0" stroke="#000" fill="#645A73"/>
      <rect id="svg_35" height="32" width="33" y="335.5" x="198" stroke-width="0" stroke="#000" fill="#645A73"/>
     </g>
    </g>
    <path fill="#AF84A3" stroke-width="0" d="m379.14501,189.77878l33.49997,-17.18842l33.50005,17.18842l-12.79582,27.81157l-41.40833,0l-12.79586,-27.81157l-0.00001,0z" id="svg_51" stroke="#000"/>
   </g>
   <ellipse fill="#9ACEE6" stroke-width="0" cx="156.5" cy="73" id="svg_3" rx="84.5" ry="27.5" stroke="#000"/>
   <ellipse fill="#9ACEE6" stroke-width="0" cx="260" cy="52.5" id="svg_7" rx="63" ry="23" stroke="#000"/>
   <ellipse fill="#9ACEE6" stroke="#000" stroke-width="0" cx="145" cy="68" id="svg_28" rx="42" ry="23.5"/>
   <ellipse fill="#9ACEE6" stroke-width="0" cx="188.5" cy="41.5" id="svg_29" rx="52.5" ry="18" stroke="#000"/>
   <ellipse fill="#9ACEE6" stroke="#000" stroke-width="0" cx="541" cy="66" id="svg_40" rx="32" ry="14.5"/>
   <ellipse fill="#9ACEE6" stroke="#000" stroke-width="0" cx="583" cy="140" id="svg_45" rx="37" ry="16.5"/>
   <ellipse fill="#9ACEE6" stroke="#000" stroke-width="0" cx="556" cy="148" id="svg_46" rx="30" ry="11.5"/>
  </g>
 </g>

</svg>