<svg viewBox="10 25 560 1000" xmlns="http://www.w3.org/2000/svg" style="vector-effect: non-scaling-stroke;" stroke="null">
 <defs>
 <style><![CDATA[
 g#all:hover g#svg_223 rect, g#all:hover g#svg_223 path{fill:#66CDAA;transition-duration:2s}
  g#all:hover g#svg_5 rect, g#all:hover g#svg_5 path, g#all:hover g#svg_5 ellipse{fill:#40E0D0;transition-duration:2s}
  g#all:hover g#svg_60 rect, g#all:hover g#svg_60 path{fill:#DA70D6;transition-duration:2s}
    g#all:hover g#svg_119 rect, g#all:hover g#svg_119 path{fill:#9370DB;transition-duration:2s}
    g#all:hover g#svg_187 rect, g#all:hover g#svg_187 path{fill:#4B0082;transition-duration:2s}
    
 ]]></style>
 </defs>
 <g stroke="null" id="all">
  <title stroke="null">city Carolina</title>
  <g stroke="null" opacity="0.48" id="svg_223">
   <rect stroke="#000" fill="#B6C7EA" x="392" y="40.11592" width="51" height="703.31941" id="svg_191" stroke-width="0"/>
   <rect stroke="#000" fill="#B6C7EA" x="34" y="273.84463" width="165" height="494.51665" id="svg_192" stroke-width="0"/>
   <rect stroke="#000" fill="#B6C7EA" x="102" y="554.90081" width="59" height="215.13911" id="svg_193" stroke-width="0"/>
   <rect stroke="#000" fill="#B6C7EA" x="307.00001" y="312.90354" width="183.99999" height="440.23835" id="svg_194" stroke-width="0"/>
   <rect stroke="#000" fill="#B6C7EA" x="222" y="489.12064" width="225" height="286.89536" id="svg_195" stroke-width="0"/>
   <rect stroke="#000" fill="#B6C7EA" x="433" y="447.33126" width="52" height="328.68474" id="svg_196" stroke-width="0"/>
   <rect stroke="#000" fill="#B6C7EA" x="582" y="329.80156" width="77" height="446.21444" id="svg_197" stroke-width="0"/>
   <rect stroke="#000" fill="#B6C7EA" x="541" y="630.59791" width="46" height="149.40216" id="svg_198" stroke-width="0"/>
   <rect stroke="#000" fill="#B6C7EA" x="468" y="656.49428" width="91" height="117.5297" id="svg_199" stroke-width="0"/>
   <rect stroke="#000" fill="#B6C7EA" x="630" y="519.0443" width="155" height="250.99562" id="svg_200" stroke-width="0"/>
   <rect stroke="#000" fill="#B6C7EA" x="670" y="192.35158" width="132" height="579.68037" id="svg_201" stroke-width="0"/>
   <path stroke="#000" fill="#B6C7EA" opacity="undefined" d="m353,652.51022l119,0l0,123.50578l-119,0l0,-123.50578z" id="svg_202" stroke-width="0"/>
   <rect stroke="#000" fill="#B6C7EA" stroke-width="0" x="446" y="431.39503" width="28" height="19.92029" id="svg_204"/>
   <rect stroke="#000" fill="#B6C7EA" stroke-width="0" x="611" y="297.9291" width="36" height="37.84855" id="svg_205"/>
   <rect stroke="#000" fill="#B6C7EA" stroke-width="0" x="593" y="268.04867" width="41" height="67.72898" id="svg_206"/>
   <rect stroke="#000" fill="#B6C7EA" stroke-width="0" x="555" y="594.74139" width="33" height="43.82463" id="svg_207"/>
   <rect stroke="#000" fill="#B6C7EA" stroke-width="0" x="491" y="32.98927" width="94" height="653.38537" id="svg_208"/>
   <rect stroke="#000" fill="#B6C7EA" stroke-width="0" x="130" y="193.62677" width="48" height="93.62535" id="svg_209"/>
   <rect stroke="#000" fill="#B6C7EA" stroke-width="0" x="163" y="339.76532" width="134" height="169.36566" id="svg_215"/>
   <rect stroke="#000" fill="#B6C7EA" stroke-width="0" x="314" y="425.41894" width="16" height="83.66521" id="svg_216"/>
   <rect stroke="#000" fill="#B6C7EA" stroke-width="0" x="123" y="503.10807" width="22" height="57.76883" id="svg_217"/>
   <rect stroke="#000" fill="#B6C7EA" stroke-width="0" x="465" y="341.75374" width="0" height="1.99203" id="svg_219"/>
   <path stroke="#000" fill="#B6C7EA" stroke-width="0" d="m318.18997,653.45934l37,-73.70506l37,73.70506l-74,0z" id="svg_220"/>
   <rect stroke="#000" id="svg_224" height="144.36264" width="50" y="199.19218" x="329" stroke-width="0" fill="#B6C7EA"/>
   <path id="svg_227" d="m196.51749,344.23437l34.5,-42l34.5,42l-69,0z" stroke-width="0" stroke="#000" fill="#B6C7EA"/>
   <rect id="svg_230" height="36" width="63" y="283.5" x="457.5" stroke-width="0" stroke="#000" fill="#B6C7EA"/>
  </g>
  <g stroke="null" id="svg_5">
   <rect stroke="#000" fill="#B6C7EA" x="-6" y="234.76823" width="65" height="538.60943" id="svg_1" stroke-width="0"/>
   <rect stroke="#000" fill="#B6C7EA" x="58" y="327.24033" width="78" height="439.64806" id="svg_2" stroke-width="0"/>
   <rect stroke="#000" fill="#B6C7EA" x="126" y="591.6781" width="59" height="175.2103" id="svg_3" stroke-width="0"/>
   <rect stroke="#000" fill="#B6C7EA" x="181" y="416.4678" width="143" height="358.53218" id="svg_4" stroke-width="0"/>
   <rect stroke="#000" fill="#B6C7EA" x="246" y="590.05578" width="161" height="181.69957" id="svg_6" stroke-width="0"/>
   <rect stroke="#000" fill="#B6C7EA" x="457" y="504.07295" width="52" height="267.6824" id="svg_7" stroke-width="0"/>
   <rect stroke="#000" fill="#B6C7EA" x="606" y="408.35621" width="77" height="363.39913" id="svg_8" stroke-width="0"/>
   <rect stroke="#000" fill="#B6C7EA" x="565" y="653.32616" width="46" height="121.67382" id="svg_9" stroke-width="0"/>
   <rect stroke="#000" fill="#B6C7EA" x="492" y="674.41629" width="91" height="95.71674" id="svg_10" stroke-width="0"/>
   <rect stroke="#000" fill="#B6C7EA" x="654" y="562.47638" width="155" height="204.41201" id="svg_11" stroke-width="0"/>
   <rect stroke="#000" fill="#B6C7EA" x="729" y="296.4163" width="97" height="472.09441" id="svg_12" stroke-width="0"/>
   <path stroke="#000" fill="#B6C7EA" opacity="undefined" d="m377,671.17166l119,0l0,100.58369l-119,0l0,-100.58369z" id="svg_13" stroke-width="0"/>
   <ellipse stroke="#000" fill="#B6C7EA" cx="252.50001" cy="414.84548" id="svg_15" rx="71.50001" ry="43.80257" stroke-width="0"/>
   <rect stroke="#000" fill="#B6C7EA" stroke-width="0" x="470" y="491.09441" width="28" height="16.22318" id="svg_17"/>
   <rect stroke="#000" fill="#B6C7EA" stroke-width="0" x="635" y="382.39913" width="36" height="30.82403" id="svg_18"/>
   <rect stroke="#000" fill="#B6C7EA" stroke-width="0" x="617" y="358.06437" width="41" height="55.1588" id="svg_19"/>
   <rect stroke="#000" fill="#B6C7EA" stroke-width="0" x="579" y="624.12445" width="33" height="35.69099" id="svg_20"/>
   <rect stroke="#000" fill="#B6C7EA" stroke-width="0" x="515" y="166.63089" width="94" height="532.12011" id="svg_21"/>
   <rect stroke="#000" fill="#B6C7EA" stroke-width="0" x="75" y="276.94849" width="48" height="76.24892" id="svg_22"/>
   <rect stroke="#000" fill="#B6C7EA" stroke-width="0" x="86" y="225.03433" width="28" height="66.51502" id="svg_23"/>
   <rect stroke="#000" fill="#B6C7EA" stroke-width="0" x="1" y="176.3648" width="48" height="87.60515" id="svg_25"/>
   <rect stroke="#000" fill="#B6C7EA" stroke-width="0" x="746" y="213.67811" width="58" height="100.58369" id="svg_26"/>
   <rect stroke="#000" fill="#B6C7EA" stroke-width="0" x="770" y="142.29613" width="27" height="102.20601" id="svg_27"/>
   <rect stroke="#000" fill="#B6C7EA" stroke-width="0" x="323" y="538.14162" width="66" height="85.98283" id="svg_28"/>
   <rect stroke="#000" fill="#B6C7EA" stroke-width="0" x="338" y="486.22746" width="16" height="68.13734" id="svg_29"/>
   <rect stroke="#000" fill="#B6C7EA" stroke-width="0" x="147" y="549.49784" width="22" height="47.04721" id="svg_30"/>
   <rect stroke="#000" fill="#B6C7EA" stroke-width="0" x="489" y="418.09012" width="0" height="1.62232" id="svg_34"/>
   <path stroke="#000" fill="#B6C7EA" stroke-width="0" d="m355.18999,539.33704l16.5,-60.02575l16.5,60.02575l-33,0z" id="svg_78"/>
   <path stroke="#000" fill="#B6C7EA" stroke-width="0" d="m42.935,149.02337c0,4.03191 -7.3873,7.30043 -16.5,7.30043m16.5,-7.30043l0,0c0,4.03191 -7.3873,7.30043 -16.5,7.30043c-9.1127,0 -16.5,-3.2685 -16.5,-7.30043m0,0l0,0c0,-4.03191 7.3873,-7.30043 16.5,-7.30043c9.1127,0 16.5,3.26852 16.5,7.30043l0,29.20173c0,4.03191 -7.3873,7.30041 -16.5,7.30041c-9.1127,0 -16.5,-3.2685 -16.5,-7.30041l0,-29.20173z" id="svg_81"/>
   <path stroke="#000" fill="#B6C7EA" stroke-width="0" d="m789.20498,181.00461c0,4.77857 -8.28273,8.65235 -18.5,8.65235m18.5,-8.65235l0,0c0,4.77857 -8.28273,8.65235 -18.5,8.65235c-10.21727,0 -18.5,-3.87379 -18.5,-8.65235m0,0l0,0c0,-4.77857 8.28273,-8.65235 18.5,-8.65235c10.21727,0 18.5,3.8738 18.5,8.65235l0,34.60947c0,4.77857 -8.28273,8.65235 -18.5,8.65235c-10.21727,0 -18.5,-3.87379 -18.5,-8.65235l0,-34.60947z" id="svg_82"/>
   <path id="svg_233" d="m96.4825,229.78944l3.5,-203.99999l3.5,203.99999l-7,0z" stroke-width="0" stroke="#000" fill="#B6C7EA"/>
   <path id="svg_234" d="m480.56251,493.46437l3.5,-222.00001l3.5,222.00001l-6.99999,0z" stroke-width="0" stroke="#000" fill="#B6C7EA"/>
   <rect id="svg_235" height="15" width="13" y="477.5" x="477.5" stroke-width="0" stroke="#000" fill="#B6C7EA"/>
   <rect id="svg_236" height="25" width="14" y="207.5" x="93.5" stroke-width="0" stroke="#000" fill="#B6C7EA"/>
   <rect id="svg_237" height="4" width="5" y="217.5" x="97.5" stroke-width="0" stroke="#000" fill="#B6C7EA"/>
  </g>
  <g stroke="null" id="svg_60">
   <rect stroke="#000" fill="#746587" x="-1" y="259.90265" width="65" height="605.23894" id="svg_14" stroke-width="0"/>
   <rect stroke="#000" fill="#746587" x="657" y="363.81416" width="78" height="494.0354" id="svg_16" stroke-width="0"/>
   <rect stroke="#000" fill="#746587" x="131" y="660.9646" width="59" height="196.88495" id="svg_31" stroke-width="0"/>
   <rect stroke="#000" fill="#746587" x="615" y="471.37168" width="143" height="402.88495" id="svg_33" stroke-width="0"/>
   <rect stroke="#000" fill="#746587" x="251" y="659.14159" width="161" height="204.17699" id="svg_35" stroke-width="0"/>
   <rect stroke="#000" fill="#746587" x="422" y="648.20354" width="52" height="300.79646" id="svg_36" stroke-width="0"/>
   <rect stroke="#000" fill="#746587" x="570" y="730.23894" width="46" height="136.72566" id="svg_38" stroke-width="0"/>
   <rect stroke="#000" fill="#746587" x="488" y="759.40708" width="91" height="107.55752" id="svg_39" stroke-width="0"/>
   <rect stroke="#000" fill="#746587" x="660" y="628.15044" width="155" height="229.69911" id="svg_40" stroke-width="0"/>
   <path stroke="#000" fill="#746587" opacity="undefined" d="m382,750.29203l119,0l0,113.02655l-119,0l0,-113.02655z" id="svg_42" stroke-width="0"/>
   <rect stroke="#000" fill="#746587" stroke-width="0" x="436" y="631.79646" width="28" height="18.23009" id="svg_44"/>
   <rect stroke="#000" fill="#746587" stroke-width="0" x="584" y="697.42478" width="33" height="40.10619" id="svg_47"/>
   <rect stroke="#000" fill="#746587" stroke-width="0" x="56" y="768.52212" width="48" height="85.68142" id="svg_49"/>
   <rect stroke="#000" fill="#746587" stroke-width="0" x="690" y="294.53982" width="28" height="74.74336" id="svg_50"/>
   <rect stroke="#000" fill="#746587" stroke-width="0" x="699" y="166.9292" width="10" height="247.9292" id="svg_51"/>
   <rect stroke="#000" fill="#746587" stroke-width="0" x="6" y="194.27434" width="48" height="98.44248" id="svg_52"/>
   <rect stroke="#000" fill="#746587" stroke-width="0" x="328" y="606.27433" width="66" height="91.15044" id="svg_55"/>
   <rect stroke="#000" fill="#746587" stroke-width="0" x="369" y="586.46902" width="16" height="76.56637" id="svg_56"/>
   <rect stroke="#000" fill="#746587" stroke-width="0" x="140" y="622.68141" width="22" height="52.86726" id="svg_57"/>
   <rect stroke="#000" fill="#746587" stroke-width="0" x="146" y="535.17699" width="9" height="176.83186" id="svg_58"/>
   <rect stroke="#000" fill="#746587" stroke-width="0" x="494" y="465.90265" width="0" height="1.82301" id="svg_59"/>
   <rect stroke="#000" fill="#746587" stroke-width="0" x="59" y="482.30973" width="45" height="357.30973" id="svg_61"/>
   <rect stroke="#000" fill="#746587" stroke-width="0" x="102" y="715.65486" width="47" height="154.95575" id="svg_62"/>
   <rect stroke="#000" fill="#746587" stroke-width="0" x="180" y="730.23894" width="83" height="123.9646" id="svg_63"/>
   <rect stroke="#000" fill="#746587" stroke-width="0" x="205" y="708.36283" width="35" height="47.39823" id="svg_65"/>
   <rect stroke="#000" fill="#746587" stroke-width="0" x="214" y="688.30973" width="19" height="32.81416" id="svg_66"/>
   <rect stroke="#000" fill="#746587" stroke-width="0" x="271" y="639.08849" width="66" height="30.99115" id="svg_67"/>
   <rect stroke="#000" fill="#746587" stroke-width="0" x="102" y="681.0177" width="38" height="49.22124" id="svg_68"/>
   <rect stroke="#000" fill="#746587" stroke-width="0" x="495" y="624.50442" width="55" height="153.13274" id="svg_69"/>
   <rect stroke="#000" fill="#746587" stroke-width="0" x="511" y="591.69026" width="25" height="47.39823" id="svg_70"/>
   <path stroke="#000" fill="#746587" stroke-width="0" d="m52.12499,483.47301l26.00001,-80.21233l26.00001,80.21233l-52.00001,0l-0.00001,0z" id="svg_71"/>
   <path stroke="#000" fill="#746587" stroke-width="0" d="m68.67,454.70367l0.745,-1.82303l0.745,1.82303l-1.49,0z" id="svg_72"/>
   <path stroke="#000" fill="#746587" stroke-width="0" d="m515.42502,592.55962l8.49997,-71.09729l8.49997,71.09729l-16.99994,0z" id="svg_73"/>
   <path stroke="#000" fill="#746587" stroke-width="0" d="m285.58,652.58789l10.6875,-89.32749l35.62501,0l10.6875,89.32749l-57.00001,0z" id="svg_74"/>
   <path stroke="#000" fill="#746587" stroke-width="0" d="m615.89499,444.50702l11.57144,-42.84071l30.85718,0l11.57144,42.84071l-11.57144,42.84071l-30.85718,0l-11.57144,-42.84071z" id="svg_75"/>
   <path stroke="#000" fill="#746587" stroke-width="0" d="m638.27994,431.56891l1.07144,-15.49556l2.85718,0l1.07144,15.49556l-1.07144,15.49556l-2.85718,0l-1.07144,-15.49556z" id="svg_76"/>
   <path stroke="#000" fill="#746587" stroke-width="0" d="m654.72499,422.67911l0.21428,-1.16412l0.57141,0l0.21428,1.16412l-0.21428,1.16412l-0.57141,0l-0.21428,-1.16412z" id="svg_77"/>
   <path stroke="#000" fill="#746587" stroke-width="0" d="m629.09,662.36833c0,5.70531 -10.07361,10.33039 -22.50003,10.33039m22.50003,-10.33039l0,0c0,5.70531 -10.07361,10.33039 -22.50003,10.33039c-12.42642,0 -22.50002,-4.62506 -22.50002,-10.33039m0,0l0,0c0,-5.70531 10.0736,-10.33039 22.50002,-10.33039c12.42642,0 22.50003,4.62508 22.50003,10.33039l0,41.32156c0,5.70531 -10.07361,10.33037 -22.50003,10.33037c-12.42642,0 -22.50002,-4.62506 -22.50002,-10.33037l0,-41.32156z" id="svg_85"/>
   <path id="svg_238" d="m23.4075,263.48562l8,-201l8,201l-16,0z" stroke-width="0" stroke="#000" fill="#746587"/>
   <rect id="svg_239" height="35" width="31" y="163.5" x="15.5" stroke-width="0" stroke="#000" fill="#746587"/>
  </g>
  <g stroke="null" id="svg_119">
   <rect stroke="#000" fill="#524968" x="-3.00002" y="449.92917" width="65.46875" height="496.57508" id="svg_87" stroke-width="0"/>
   <rect stroke="#000" fill="#524968" x="59.44709" y="535.18453" width="78.5625" height="405.33689" id="svg_88" stroke-width="0"/>
   <rect stroke="#000" fill="#524968" x="129.9519" y="778.98496" width="59.42548" height="161.53648" id="svg_89" stroke-width="0"/>
   <rect stroke="#000" fill="#524968" x="186.35575" y="615.27035" width="144.03125" height="330.55149" id="svg_90" stroke-width="0"/>
   <rect stroke="#000" fill="#524968" x="250.81729" y="777.48924" width="162.16106" height="167.51931" id="svg_91" stroke-width="0"/>
   <rect stroke="#000" fill="#524968" x="613.41346" y="609.96993" width="77.55529" height="335.0386" id="svg_93" stroke-width="0"/>
   <rect stroke="#000" fill="#524968" x="572.11778" y="835.82187" width="46.33173" height="112.1781" id="svg_94" stroke-width="0"/>
   <rect stroke="#000" fill="#524968" x="489.52643" y="859.75319" width="91.65625" height="88.24678" id="svg_95" stroke-width="0"/>
   <rect stroke="#000" fill="#524968" x="661.75961" y="752.0622" width="156.11779" height="188.45922" id="svg_96" stroke-width="0"/>
   <rect stroke="#000" fill="#524968" x="737.30048" y="506.76607" width="97.69952" height="435.25106" id="svg_97" stroke-width="0"/>
   <path stroke="#000" fill="#524968" opacity="undefined" d="m382.76201,852.27464l119.85818,0l0,92.73391l-119.85818,0l0,-92.73391z" id="svg_98" stroke-width="0"/>
   <rect stroke="#000" fill="#524968" stroke-width="0" x="642.62259" y="586.03861" width="36.25962" height="28.41845" id="svg_101"/>
   <rect stroke="#000" fill="#524968" stroke-width="0" x="624.49278" y="563.60298" width="41.29567" height="50.85408" id="svg_102"/>
   <rect stroke="#000" fill="#524968" stroke-width="0" x="586.21874" y="808.89911" width="33.23798" height="32.90559" id="svg_103"/>
   <rect stroke="#000" fill="#524968" stroke-width="0" x="598.30528" y="722.14805" width="7.05048" height="100.21244" id="svg_104"/>
   <rect stroke="#000" fill="#524968" stroke-width="0" x="78.58411" y="488.81758" width="48.34616" height="70.29829" id="svg_105"/>
   <rect stroke="#000" fill="#524968" stroke-width="0" x="210.72833" y="463.00001" width="51.07211" height="203.41629" id="svg_107"/>
   <rect stroke="#000" fill="#524968" stroke-width="0" x="4.05046" y="396.08369" width="48.34616" height="80.76823" id="svg_108"/>
   <rect stroke="#000" fill="#524968" stroke-width="0" x="754.42307" y="430.48498" width="58.41827" height="92.73391" id="svg_109"/>
   <rect stroke="#000" fill="#524968" stroke-width="0" x="768.52404" y="275.37071" width="19.13702" height="183.53272" id="svg_110"/>
   <rect stroke="#000" fill="#524968" stroke-width="0" x="328.37258" y="729.6266" width="66.47596" height="79.27253" id="svg_111"/>
   <rect stroke="#000" fill="#524968" stroke-width="0" x="343.48076" y="681.76393" width="16.11539" height="62.81974" id="svg_112"/>
   <rect stroke="#000" fill="#524968" stroke-width="0" x="151.10335" y="740.09654" width="22.15865" height="43.37553" id="svg_113"/>
   <rect stroke="#000" width="0" fill="#524968" stroke-width="0" x="495.5697" y="618.9442" height="1.49572" id="svg_115"/>
   <path stroke="#000" fill="#524968" stroke-width="0" d="m360.79471,730.72871l16.61899,-55.34119l16.61899,55.34119l-33.23798,0z" id="svg_116"/>
   <path stroke="#000" fill="#524968" stroke-width="0" d="m46.28788,370.87604c0,3.71725 -7.44057,6.73069 -16.61899,6.73069m16.61899,-6.73069l0,0c0,3.71725 -7.44057,6.73069 -16.61899,6.73069c-9.17842,0 -16.61899,-3.01344 -16.61899,-6.73069m0,0l0,0c0,-3.71725 7.44057,-6.73069 16.61899,-6.73069c9.17842,0 16.61899,3.01344 16.61899,6.73069l0,26.92274c0,3.71725 -7.44057,6.73069 -16.61899,6.73069c-9.17842,0 -16.61899,-3.01344 -16.61899,-6.73069l0,-26.92274z" id="svg_117"/>
   <path stroke="#000" fill="#524968" stroke-width="0" d="m797.93963,400.3614c0,4.40563 -8.34246,7.97712 -18.63341,7.97712m18.63341,-7.97712l0,0c0,4.40563 -8.34246,7.97712 -18.63341,7.97712c-10.29094,0 -18.6334,-3.57147 -18.6334,-7.97712m0,0l0,0c0,-4.40563 8.34246,-7.9771 18.6334,-7.9771c10.29095,0 18.63341,3.57147 18.63341,7.9771l0,31.90846c0,4.40563 -8.34246,7.9771 -18.63341,7.9771c-10.29094,0 -18.6334,-3.57145 -18.6334,-7.9771l0,-31.90846z" id="svg_118"/>
   <rect stroke="#000" fill="#524968" stroke-width="0" x="448.23076" y="795.53124" width="108.77885" height="98.01562" id="svg_120"/>
   <path stroke="#000" fill="#524968" stroke-width="0" d="m448.02428,793.94438l23.30976,-64.25473l62.15934,0l23.30975,64.25473l-23.30975,64.25473l-62.15934,0l-23.30976,-64.25473z" id="svg_121"/>
   <rect stroke="#000" fill="#524968" stroke-width="0" x="196.42787" y="514.55311" width="80.57693" height="224.34687" id="svg_122"/>
   <rect stroke="#000" fill="#524968" stroke-width="0" x="220.60094" y="590.78749" width="100.72116" height="93.65937" id="svg_123"/>
  </g>
  <g stroke="null" id="svg_187">
   <rect stroke="#000" fill="#332D40" x="-1" y="906.75069" width="65" height="165.54693" id="svg_155" stroke-width="0"/>
   <rect stroke="#000" fill="#332D40" x="61" y="836.46248" width="78" height="230.29862" id="svg_156" stroke-width="0"/>
   <rect stroke="#000" fill="#332D40" x="131" y="917.27748" width="59" height="149.48367" id="svg_157" stroke-width="0"/>
   <rect stroke="#000" fill="#332D40" x="187" y="765.7782" width="143" height="305.88786" id="svg_158" stroke-width="0"/>
   <rect stroke="#000" fill="#332D40" x="251" y="915.89336" width="161" height="155.0201" id="svg_159" stroke-width="0"/>
   <rect stroke="#000" fill="#332D40" x="611" y="760.87326" width="27" height="310.04017" id="svg_160" stroke-width="0"/>
   <rect stroke="#000" fill="#332D40" x="570" y="921.60874" width="46" height="152.07294" id="svg_161" stroke-width="0"/>
   <rect stroke="#000" fill="#332D40" x="488" y="926.20351" width="91" height="143.09045" id="svg_162" stroke-width="0"/>
   <rect stroke="#000" fill="#332D40" x="659" y="892.36352" width="155" height="174.3976" id="svg_163" stroke-width="0"/>
   <rect stroke="#000" fill="#332D40" x="733" y="823.32758" width="48" height="240.42987" id="svg_164" stroke-width="0"/>
   <path stroke="#000" fill="#332D40" opacity="undefined" d="m382,906.11986l119,0l0,164.79368l-119,0l0,-164.79368z" id="svg_165" stroke-width="0"/>
   <rect stroke="#000" fill="#332D40" stroke-width="0" x="687" y="879.13446" width="36" height="26.29805" id="svg_166"/>
   <rect stroke="#000" fill="#332D40" stroke-width="0" x="632" y="814.49529" width="41" height="297.15907" id="svg_167"/>
   <rect stroke="#000" fill="#332D40" stroke-width="0" x="584" y="944.95963" width="33" height="30.45038" id="svg_168"/>
   <rect stroke="#000" fill="#332D40" stroke-width="0" x="596" y="864.68138" width="7" height="92.73523" id="svg_169"/>
   <rect stroke="#000" fill="#332D40" stroke-width="0" x="81" y="727.73927" width="48" height="148.41974" id="svg_170"/>
   <rect stroke="#000" fill="#332D40" stroke-width="0" x="328" y="871.60192" width="66" height="73.35773" id="svg_176"/>
   <rect stroke="#000" fill="#332D40" stroke-width="0" x="343" y="827.31046" width="16" height="58.13253" id="svg_177"/>
   <rect stroke="#000" fill="#332D40" stroke-width="0" x="152" y="881.29066" width="22" height="40.13913" id="svg_178"/>
   <rect stroke="#000" width="0" fill="#332D40" stroke-width="0" x="494" y="769.17793" height="1.38412" id="svg_179"/>
   <path stroke="#000" fill="#332D40" stroke-width="0" d="m360.18999,872.6218l16.5,-51.21199l16.5,51.21199l-33,0z" id="svg_180"/>
   <rect stroke="#000" fill="#332D40" stroke-width="0" x="403.00001" y="808.95771" width="161" height="213.33383" id="svg_183"/>
   <rect stroke="#000" fill="#332D40" stroke-width="0" x="197" y="672.57584" width="80" height="207.60755" id="svg_185"/>
   <rect stroke="#000" fill="#332D40" stroke-width="0" x="221" y="743.12209" width="100" height="86.67111" id="svg_186"/>
   <path stroke="#000" id="svg_188" d="m686.56003,821.04119l18.99998,-92.1775l19.00002,92.1775l-7.25733,149.14695l-23.48532,0l-7.25735,-149.14695z" stroke-width="0" fill="#332D40"/>
   <path stroke="#000" id="svg_189" d="m710.92499,832.93855l1,-16.7595l1.00001,16.7595l-0.38197,27.11756l-1.23608,0l-0.38197,-27.11756z" stroke-width="0" fill="#332D40"/>
   <path stroke="#000" id="svg_190" d="m1.495,926.92076l31.5,-104.18229l31.5,104.18229l-63,0z" stroke-width="0" fill="#332D40"/>
   <rect stroke="#000" id="svg_225" height="87.75433" width="53" y="722.66437" x="413" stroke-width="0" fill="#332D40"/>
   <path id="svg_231" d="m98.00751,740.19443l5.5,-247.99997l5.5,247.99997l-11,0z" stroke-width="0" stroke="#000" fill="#332D40"/>
   <path stroke="#000" id="svg_244" d="m412.40251,722.84125l26.49997,-11.84091l26.50003,11.84091l-10.12206,19.15908l-32.75584,0l-10.1221,-19.15908z" stroke-width="0" fill="#332D40"/>
   <path id="svg_245" d="m441.2875,720.00106l0.5,-3.05572l0.5,3.05572l-0.19098,4.94428l-0.61804,0l-0.19098,-4.94428z" stroke-width="0" stroke="#000" fill="#332D40"/>
  </g>
   
 </g>

</svg>